<?xml version="1.0" standalone="no"?>
<!DOCTYPE svg PUBLIC "-//W3C//DTD SVG 1.1//EN" "http://www.w3.org/Graphics/SVG/1.1/DTD/svg11.dtd">
<svg xmlns="http://www.w3.org/2000/svg" id="full_logo_all_in" data-name="full logo all in" viewBox="0 0 59.47 22.43" width="59.470001220703125" height="22.43000030517578"><defs><style>.cls-1{fill:#221f1f;}.cls-2{fill:#fff;}</style></defs><g id="nothingness"><path d="M335.22,418.78a1,1,0,0,0-.83.39,1.84,1.84,0,0,0-.31,1.17V422a.06.06,0,0,1-.07.07h-.41c-.05,0-.07,0-.07-.07v-3.48c0-.05,0-.07.07-.07h.27c.05,0,.07,0,.07.05l.1.64a1.27,1.27,0,0,1,.51-.6,1.66,1.66,0,0,1,.8-.19,1.54,1.54,0,0,1,.67.13,1.44,1.44,0,0,1,.49.34,1.36,1.36,0,0,1,.29.49,1.67,1.67,0,0,1,.11.59V422c0,.05,0,.07-.08.07h-.4c-.05,0-.08,0-.08-.07v-2.1a1.07,1.07,0,0,0-.3-.8A1.13,1.13,0,0,0,335.22,418.78Z" transform="translate(-313.28 -408.47)"/><path d="M337.57,420.23a2.35,2.35,0,0,1,.12-.77,2,2,0,0,1,.35-.6,1.5,1.5,0,0,1,.54-.39,1.92,1.92,0,0,1,1.39,0,1.5,1.5,0,0,1,.54.39,1.77,1.77,0,0,1,.34.6,2.35,2.35,0,0,1,.12.77,2.43,2.43,0,0,1-.12.79,1.68,1.68,0,0,1-.34.6,1.5,1.5,0,0,1-.54.39,1.8,1.8,0,0,1-1.39,0,1.5,1.5,0,0,1-.54-.39,1.86,1.86,0,0,1-.35-.6A2.43,2.43,0,0,1,337.57,420.23Zm.55,0a1.87,1.87,0,0,0,.08.59,1.33,1.33,0,0,0,.23.46,1,1,0,0,0,.36.31,1.09,1.09,0,0,0,.48.1,1,1,0,0,0,.47-.1,1,1,0,0,0,.37-.31,1.33,1.33,0,0,0,.23-.46,1.87,1.87,0,0,0,.09-.59,1.83,1.83,0,0,0-.09-.59,1.37,1.37,0,0,0-.23-.45,1.05,1.05,0,0,0-.84-.39,1.09,1.09,0,0,0-.48.1,1,1,0,0,0-.36.29,1.37,1.37,0,0,0-.23.45A1.83,1.83,0,0,0,338.12,420.23Z" transform="translate(-313.28 -408.47)"/><path d="M342.43,417.26v1.18h1.14a.06.06,0,0,1,.07.07v.33a.07.07,0,0,1-.07.07h-1.14v2.22a.68.68,0,0,0,.05.27.51.51,0,0,0,.34.28l.21,0a.75.75,0,0,0,.31-.06l.25-.12a.05.05,0,0,1,.08,0l.21.27s0,.06,0,.1l-.3.15a1.21,1.21,0,0,1-.54.1,1.62,1.62,0,0,1-.54-.08.92.92,0,0,1-.36-.22.79.79,0,0,1-.2-.33,1.77,1.77,0,0,1-.05-.41v-2.22h-.58a.07.07,0,0,1-.07-.07v-.26s0-.06.07-.07l.58-.07.07-1.19c0-.05,0-.07.07-.07h.33A.07.07,0,0,1,342.43,417.26Z" transform="translate(-313.28 -408.47)"/><path d="M346.23,418.81a1.2,1.2,0,0,0-.42.08.79.79,0,0,0-.37.24,1.37,1.37,0,0,0-.26.43,2,2,0,0,0-.09.65V422c0,.05,0,.07-.08.07h-.4c-.05,0-.07,0-.07-.07V416.7a.06.06,0,0,1,.07-.07h.4a.07.07,0,0,1,.08.07v2.39a1.19,1.19,0,0,1,.52-.54,1.49,1.49,0,0,1,.75-.18,1.74,1.74,0,0,1,.67.12,1.54,1.54,0,0,1,.48.34,1.34,1.34,0,0,1,.3.48,1.57,1.57,0,0,1,.1.58V422c0,.05,0,.07-.07.07h-.4c-.05,0-.08,0-.08-.07v-2.1a1.14,1.14,0,0,0-.07-.41,1.08,1.08,0,0,0-.23-.34,1.13,1.13,0,0,0-.36-.24A1.19,1.19,0,0,0,346.23,418.81Z" transform="translate(-313.28 -408.47)"/><path d="M348.78,417a.3.3,0,0,1,.09-.23.28.28,0,0,1,.22-.09.32.32,0,0,1,.23.09.34.34,0,0,1,.08.23.36.36,0,0,1-.08.24.32.32,0,0,1-.23.09.28.28,0,0,1-.22-.09A.32.32,0,0,1,348.78,417Zm.15,5.11c-.05,0-.07,0-.07-.07V418.5c0-.05,0-.07.07-.07h.34c.05,0,.07,0,.07.07V422c0,.05,0,.07-.07.07Z" transform="translate(-313.28 -408.47)"/><path d="M352,418.78a1,1,0,0,0-.83.39,1.84,1.84,0,0,0-.31,1.17V422c0,.05,0,.07-.07.07h-.41s-.07,0-.07-.07v-3.48c0-.05,0-.07.07-.07h.27c.05,0,.07,0,.07.05l.1.64a1.27,1.27,0,0,1,.51-.6,1.67,1.67,0,0,1,.81-.19,1.53,1.53,0,0,1,.66.13,1.37,1.37,0,0,1,.78.83,1.67,1.67,0,0,1,.11.59V422c0,.05,0,.07-.08.07h-.4c-.05,0-.07,0-.07-.07v-2.1a1.08,1.08,0,0,0-.31-.8A1.13,1.13,0,0,0,352,418.78Z" transform="translate(-313.28 -408.47)"/><path d="M354.63,423.45a.09.09,0,0,1,0-.07l.19-.25c0-.05.08-.05.12,0a.48.48,0,0,0,.13.09,1,1,0,0,0,.21.1,1.07,1.07,0,0,0,.3.09,2.21,2.21,0,0,0,.39,0,1.34,1.34,0,0,0,.62-.12.88.88,0,0,0,.34-.28.72.72,0,0,0,.15-.32,1.8,1.8,0,0,0,0-.27v-.88a1.33,1.33,0,0,1-.49.42,1.4,1.4,0,0,1-.66.15,1.75,1.75,0,0,1-.7-.13,1.56,1.56,0,0,1-.53-.38,1.65,1.65,0,0,1-.35-.59,2.35,2.35,0,0,1-.12-.77,2.47,2.47,0,0,1,.12-.79,1.65,1.65,0,0,1,.35-.59,1.44,1.44,0,0,1,.53-.38,1.75,1.75,0,0,1,.7-.14,1.39,1.39,0,0,1,1.18.62l.05-.49a.07.07,0,0,1,.07-.06h.3c.05,0,.07,0,.07.07v4a1.63,1.63,0,0,1-.11.59,1.31,1.31,0,0,1-.32.47,1.67,1.67,0,0,1-.52.31,2.19,2.19,0,0,1-.7.1,2,2,0,0,1-.71-.1,1.56,1.56,0,0,1-.43-.21A1.52,1.52,0,0,1,354.63,423.45Zm1.34-1.76a1,1,0,0,0,.79-.34,1.53,1.53,0,0,0,.35-.91v-.37a1.56,1.56,0,0,0-.35-.92,1,1,0,0,0-.79-.35,1.06,1.06,0,0,0-.48.1,1.08,1.08,0,0,0-.37.31,1.33,1.33,0,0,0-.23.46,1.87,1.87,0,0,0-.08.59,1.83,1.83,0,0,0,.08.59,1.37,1.37,0,0,0,.23.45,1.13,1.13,0,0,0,.37.29A1.06,1.06,0,0,0,356,421.69Z" transform="translate(-313.28 -408.47)"/><path d="M360.19,418.78a1,1,0,0,0-.83.39,1.84,1.84,0,0,0-.31,1.17V422c0,.05,0,.07-.07.07h-.41a.06.06,0,0,1-.07-.07v-3.48a.06.06,0,0,1,.07-.07h.27c.05,0,.07,0,.07.05l.1.64a1.29,1.29,0,0,1,.52-.6,1.63,1.63,0,0,1,.8-.19,1.53,1.53,0,0,1,.66.13,1.34,1.34,0,0,1,.49.34,1.54,1.54,0,0,1,.3.49,1.92,1.92,0,0,1,.1.59V422a.06.06,0,0,1-.07.07h-.41s-.07,0-.07-.07v-2.1a1.07,1.07,0,0,0-.3-.8A1.14,1.14,0,0,0,360.19,418.78Z" transform="translate(-313.28 -408.47)"/><path d="M366.1,420.39s0,.07-.07.07h-2.72a1.39,1.39,0,0,0,.15.5,1.23,1.23,0,0,0,.27.39,1.2,1.2,0,0,0,.83.34,1.63,1.63,0,0,0,.47-.06,1.8,1.8,0,0,0,.31-.15,1.41,1.41,0,0,0,.24-.2l.23.27s0,.06,0,.1a1.92,1.92,0,0,1-.21.16,1.78,1.78,0,0,1-.27.17,1.7,1.7,0,0,1-.34.12,1.86,1.86,0,0,1-.42,0,1.89,1.89,0,0,1-.72-.14,1.71,1.71,0,0,1-1-1,2.18,2.18,0,0,1-.14-.79,2.35,2.35,0,0,1,.12-.77,1.79,1.79,0,0,1,.35-.6,1.38,1.38,0,0,1,.53-.39,1.78,1.78,0,0,1,.7-.13,1.83,1.83,0,0,1,.66.11,1.26,1.26,0,0,1,.53.36,1.61,1.61,0,0,1,.36.63A2.72,2.72,0,0,1,366.1,420.39Zm-.58-.4a1.61,1.61,0,0,0-.1-.53,1,1,0,0,0-.23-.37.83.83,0,0,0-.34-.22,1.07,1.07,0,0,0-.41-.07,1,1,0,0,0-.77.32,1.44,1.44,0,0,0-.36.87Z" transform="translate(-313.28 -408.47)"/><path d="M369.22,418.61l0,0a.07.07,0,0,1,0,.06l-.16.28s-.06,0-.11,0a2.49,2.49,0,0,0-.32-.13,1.85,1.85,0,0,0-.49-.09l-.28,0a1.29,1.29,0,0,0-.28.08.58.58,0,0,0-.21.17.37.37,0,0,0-.09.25.33.33,0,0,0,.11.27,1.27,1.27,0,0,0,.27.18l.3.1.21.06.31.11a2,2,0,0,1,.41.21,1.53,1.53,0,0,1,.37.35.86.86,0,0,1,.16.51.94.94,0,0,1-.11.45,1.12,1.12,0,0,1-.32.33,1.44,1.44,0,0,1-.49.2,2.5,2.5,0,0,1-.63.06,2,2,0,0,1-.71-.14,2.29,2.29,0,0,1-.45-.24s-.05-.06,0-.1l.2-.28s.06-.05.1,0l.15.07a.67.67,0,0,0,.21.09,1.6,1.6,0,0,0,.26.08.88.88,0,0,0,.29,0,1.45,1.45,0,0,0,.36,0,.7.7,0,0,0,.3-.09.55.55,0,0,0,.21-.19.42.42,0,0,0,.08-.28.39.39,0,0,0-.1-.27,1.18,1.18,0,0,0-.27-.2,2.21,2.21,0,0,0-.35-.16l-.36-.12a2.75,2.75,0,0,1-.36-.15,1.27,1.27,0,0,1-.34-.2,1,1,0,0,1-.24-.29.79.79,0,0,1-.09-.38.74.74,0,0,1,.12-.42,1,1,0,0,1,.31-.3,1.85,1.85,0,0,1,.45-.19,2.24,2.24,0,0,1,.52-.06,1.81,1.81,0,0,1,.62.09Z" transform="translate(-313.28 -408.47)"/><path d="M372.53,418.61l0,0a.07.07,0,0,1,0,.06l-.16.28a.07.07,0,0,1-.1,0l-.33-.13a1.78,1.78,0,0,0-.49-.09l-.27,0a1.15,1.15,0,0,0-.28.08.62.62,0,0,0-.22.17.37.37,0,0,0-.09.25.33.33,0,0,0,.11.27,1.27,1.27,0,0,0,.27.18l.31.1.2.06.31.11a1.77,1.77,0,0,1,.41.21,1.53,1.53,0,0,1,.37.35.8.8,0,0,1,.16.51.94.94,0,0,1-.11.45,1,1,0,0,1-.32.33,1.44,1.44,0,0,1-.49.2,2.46,2.46,0,0,1-.62.06,2,2,0,0,1-.72-.14,2.29,2.29,0,0,1-.45-.24.07.07,0,0,1,0-.1l.2-.28s.06-.05.1,0l.15.07a.67.67,0,0,0,.21.09l.26.08a.93.93,0,0,0,.29,0,1.45,1.45,0,0,0,.36,0,.66.66,0,0,0,.3-.09.55.55,0,0,0,.21-.19.42.42,0,0,0,.08-.28.39.39,0,0,0-.1-.27,1.18,1.18,0,0,0-.27-.2,1.87,1.87,0,0,0-.35-.16l-.36-.12a2.75,2.75,0,0,1-.36-.15,1.21,1.21,0,0,1-.33-.2,1.16,1.16,0,0,1-.25-.29.79.79,0,0,1-.09-.38.74.74,0,0,1,.12-.42,1,1,0,0,1,.31-.3,1.85,1.85,0,0,1,.45-.19,2.31,2.31,0,0,1,.52-.06,1.81,1.81,0,0,1,.62.09A4,4,0,0,1,372.53,418.61Z" transform="translate(-313.28 -408.47)"/></g><path class="cls-1" d="M325.37,409.59c-1.46-1.67-4.57-.7-6.53-1-1.16-.17-2.35-.38-3.35.45s-1.1,2.15-1.19,3.37l-.71,9.34-.23,3.08a10.9,10.9,0,0,0,.06,3,3.65,3.65,0,0,0,1.59,2.46,5.43,5.43,0,0,0,2.77.52l3.86,0a5.3,5.3,0,0,0,3.34-.72c1.07-.83,1.33-2.32,1.48-3.67a46.83,46.83,0,0,0-.21-14.76A4.46,4.46,0,0,0,325.37,409.59Z" transform="translate(-313.28 -408.47)"/><g id="mu"><path class="cls-2" d="M319.22,416.57a7.94,7.94,0,0,1,.09,1.38,19.24,19.24,0,0,0,.51,4c.19.13.44,0,.56-.23a1.76,1.76,0,0,0,.15-.8,22,22,0,0,0-.34-2.42c-.07-.67-.05-1.36-.13-2-.06-.46-.2-1-.53-1.14-.17-.09-.72-.11-.76.22C318.75,415.71,319.17,416.35,319.22,416.57Z" transform="translate(-313.28 -408.47)"/><path class="cls-2" d="M321.05,420.88a1.23,1.23,0,0,0-.15.8c.13.35.52.15.66-.09a1.82,1.82,0,0,0,.21-.62,24.87,24.87,0,0,0,.44-4,2.57,2.57,0,0,0-.27-1.58.91.91,0,0,0-1.21-.29c-.1.05.35.59.36.62a3.46,3.46,0,0,1,.19,1.17c0,.89,0,1.81,0,2.71a2.72,2.72,0,0,1-.06.81A3.79,3.79,0,0,1,321.05,420.88Z" transform="translate(-313.28 -408.47)"/><path class="cls-2" d="M322.92,418.72a16.56,16.56,0,0,0-.67,2.78.52.52,0,0,0,0,.18.32.32,0,0,0,.14.12c.21.09.47.18.64,0a1,1,0,0,0,.15-.29,17.74,17.74,0,0,0,.72-4l.12-1.16a1.75,1.75,0,0,0,0-.56,1.32,1.32,0,0,0-.18-.33,1.09,1.09,0,0,0-1.17-.51A5.39,5.39,0,0,1,322.92,418.72Z" transform="translate(-313.28 -408.47)"/><path class="cls-2" d="M322.56,417.5a1.82,1.82,0,0,1,1.63.27,1.63,1.63,0,0,1,.44.83,7,7,0,0,1-1.71.11,29.58,29.58,0,0,0-5.63,1,2.23,2.23,0,0,1-2.07-.83c.34-.25,1.1-.17,1.52-.26s1-.24,1.51-.33C319.68,418,321.12,417.73,322.56,417.5Z" transform="translate(-313.28 -408.47)"/><path class="cls-2" d="M317.49,422.21a1,1,0,0,1,.45-.09,19.84,19.84,0,0,0,2.79-.67,3.56,3.56,0,0,1,2.79.24.45.45,0,0,1,.22.23.43.43,0,0,1-.26.52,1,1,0,0,1-.54-.1,3.44,3.44,0,0,0-1.77.08l-2.92.65a1.81,1.81,0,0,1-.61.06C317,423.05,316.84,422.55,317.49,422.21Z" transform="translate(-313.28 -408.47)"/><path class="cls-2" d="M316,425.22a2.67,2.67,0,0,1,.16.69,2.73,2.73,0,0,1-.62,1.68c0,.06-.09.12-.15.13a.14.14,0,0,1-.11,0,1.09,1.09,0,0,1-.45-1,3.09,3.09,0,0,1,.32-1.17c.07-.17.31-1,.46-1S315.9,425,316,425.22Z" transform="translate(-313.28 -408.47)"/><path class="cls-2" d="M317.76,425a4.17,4.17,0,0,0,.18,1.28,1.29,1.29,0,0,0,.24.5.36.36,0,0,0,.43.12.82.82,0,0,0,.27-.43,4.19,4.19,0,0,0,.17-1.06.88.88,0,0,0-.05-.4.76.76,0,0,0-.18-.25c-.3-.3-.68-.74-1.07-.73C317.73,424.33,317.76,424.67,317.76,425Z" transform="translate(-313.28 -408.47)"/><path class="cls-2" d="M320.31,425.25a2.33,2.33,0,0,0,.45.87,2,2,0,0,0,.25.37.25.25,0,0,0,.35.06.67.67,0,0,0,.16-.44,3.07,3.07,0,0,0-.07-1.57,2.46,2.46,0,0,0-.19-.32c-.18-.26-.75-1.1-1-.71-.09.15,0,.53,0,.69C320.35,424.54,320.27,424.91,320.31,425.25Z" transform="translate(-313.28 -408.47)"/><path class="cls-2" d="M323.13,424.93a3.38,3.38,0,0,0,.17.54,1,1,0,0,0,.86.66.37.37,0,0,0,.3-.15.48.48,0,0,0,.07-.2,1.77,1.77,0,0,0-.17-1.14,2.41,2.41,0,0,0-.29-.4l-.34-.41a1.14,1.14,0,0,0-.16-.15.58.58,0,0,0-.18-.08c-.23-.08-.7-.39-.89-.18A10.19,10.19,0,0,1,323.13,424.93Z" transform="translate(-313.28 -408.47)"/><path class="cls-2" d="M316.68,416.15a6.41,6.41,0,0,0,1.46-1.74c.06-.1.13-.22.22-.23a.33.33,0,0,1,.17,0,2.2,2.2,0,0,0,1.49-.1l1.48-.45a1.06,1.06,0,0,1,.46-.07,1.73,1.73,0,0,1,.32.11.65.65,0,0,0,.82-.69.71.71,0,0,0-.69-.6,3.83,3.83,0,0,0-1.68.34l-1.51.56a.78.78,0,0,1-.47.06.42.42,0,0,1-.27-.45,3.21,3.21,0,0,1,.12-.33.65.65,0,0,0-.46-.71c-.56-.17-.76-.36-.9.43-.12.63-.23,1.26-.34,1.89s-.26,1.21-.42,1.82-.16.36.2.41.42.16.54.82.29,1.52.44,2.28c.11.56.21,1.12.27,1.7s.09,1,.4,1.13.6-.15.71-.53a2.93,2.93,0,0,0,0-1.18l-.12-.89a19.14,19.14,0,0,0-.63-3.24,1,1,0,0,0-.23-.45.68.68,0,0,0-.48-.14h-.79c-.14,0-.32,0-.35.22a.9.9,0,0,1,.5.24" transform="translate(-313.28 -408.47)"/></g></svg>